<svg width="111" height="108" viewBox="0 0 111 108" fill="none" xmlns="http://www.w3.org/2000/svg">
<path d="M1 108V53H24L50.5 44.5L66 38L91.5 20L105.5 9.5V108H1Z" fill="url(#paint0_linear_474_808)"/>
<path d="M35.78 81.48C35.78 80.48 35.94 79.6267 36.26 78.92C36.58 78.2 37.1533 77.4067 37.98 76.54C38.7933 75.6733 39.3533 74.9333 39.66 74.32C39.98 73.7067 40.14 73.0667 40.14 72.4C40.14 71.8 40.04 71.3867 39.84 71.16C39.6533 70.92 39.3733 70.8 39 70.8C38.24 70.8 37.86 71.26 37.86 72.18V73.68H35.78V72.32C35.78 71.1867 36.06 70.32 36.62 69.72C37.18 69.1067 37.9933 68.8 39.06 68.8C40.1267 68.8 40.94 69.1067 41.5 69.72C42.06 70.32 42.34 71.1867 42.34 72.32C42.34 73.1733 42.1333 74.0067 41.72 74.82C41.32 75.6333 40.62 76.5667 39.62 77.62C38.9667 78.3133 38.5267 78.88 38.3 79.32C38.0733 79.7467 37.96 80.2067 37.96 80.7V81H42.14V83H35.78V81.48ZM43.8278 80.88H45.9478V83H43.8278V80.88ZM50.8173 83.2C49.7507 83.2 48.9373 82.9 48.3773 82.3C47.8173 81.6867 47.5373 80.8133 47.5373 79.68V78.58H49.6173V79.84C49.6173 80.7467 49.9973 81.2 50.7573 81.2C51.5173 81.2 51.8973 80.7467 51.8973 79.84V76.7C51.8973 75.78 51.5173 75.32 50.7573 75.32C49.9973 75.32 49.6173 75.78 49.6173 76.7V76.82H47.5373L47.9373 69H53.7373V71H49.8973L49.7173 74.34H49.7573C50.1707 73.66 50.804 73.32 51.6573 73.32C52.4573 73.32 53.064 73.5933 53.4773 74.14C53.8907 74.6867 54.0973 75.48 54.0973 76.52V79.68C54.0973 80.8133 53.8173 81.6867 53.2573 82.3C52.6973 82.9 51.884 83.2 50.8173 83.2ZM58.8452 83.2C57.7652 83.2 56.9385 82.8933 56.3652 82.28C55.7918 81.6667 55.5052 80.8 55.5052 79.68V72.44C55.5052 70.0133 56.6252 68.8 58.8652 68.8C59.9318 68.8 60.7452 69.1067 61.3052 69.72C61.8652 70.32 62.1452 71.1867 62.1452 72.32V72.58H60.0652V72.18C60.0652 71.26 59.6852 70.8 58.9252 70.8C58.5118 70.8 58.2052 70.9267 58.0052 71.18C57.8052 71.4333 57.7052 71.88 57.7052 72.52V75.2H57.7452C58.1318 74.3867 58.7985 73.98 59.7452 73.98C60.5452 73.98 61.1518 74.2533 61.5652 74.8C61.9785 75.3467 62.1852 76.14 62.1852 77.18V79.68C62.1852 80.8 61.8985 81.6667 61.3252 82.28C60.7518 82.8933 59.9252 83.2 58.8452 83.2ZM58.8452 81.2C59.6052 81.2 59.9852 80.7467 59.9852 79.84V77.36C59.9852 76.44 59.6052 75.98 58.8452 75.98C58.0852 75.98 57.7052 76.44 57.7052 77.36V79.84C57.7052 80.7467 58.0852 81.2 58.8452 81.2ZM65.553 75.84L63.133 69H65.453L66.933 73.52H66.973L68.493 69H70.573L68.153 75.84L70.693 83H68.373L66.773 78.12H66.733L65.093 83H63.013L65.553 75.84Z" fill="white"/>
<path d="M104.949 6.31348C92.2439 20.6028 54.0938 50.4037 1 55.2927" stroke="white" stroke-width="2"/>
<circle cx="106" cy="5" r="5" fill="white"/>
<defs>
<linearGradient id="paint0_linear_474_808" x1="53.25" y1="9.5" x2="53.25" y2="108" gradientUnits="userSpaceOnUse">
<stop stop-color="#01131F" stop-opacity="0"/>
<stop offset="1" stop-color="#EB7D2D"/>
</linearGradient>
</defs>
</svg>
