<svg width="103" height="144" viewBox="0 0 103 144" fill="none" xmlns="http://www.w3.org/2000/svg">
<g clip-path="url(#clip0_474_822)">
<g opacity="0.11">
<path d="M52.4622 84.6362C54.6773 83.3543 57.4106 83.3543 59.6257 84.6323L102.325 109.27C102.998 109.657 102.998 110.629 102.325 111.02L59.2701 135.921C57.3139 137.052 54.9054 137.052 52.9493 135.921L9.82482 111.044C9.15214 110.656 9.15214 109.684 9.82482 109.293L52.4622 84.6362Z" fill="url(#paint0_linear_474_822)"/>
</g>
<g opacity="0.11">
<path d="M52.4622 77.4331C54.6773 76.1512 57.4106 76.1512 59.6257 77.4292L102.325 102.067C102.998 102.454 102.998 103.426 102.325 103.817L59.2701 128.718C57.3139 129.849 54.9054 129.849 52.9493 128.718L9.82482 103.841C9.15214 103.453 9.15214 102.481 9.82482 102.09L52.4622 77.4331Z" fill="url(#paint1_linear_474_822)"/>
</g>
<g opacity="0.11">
<path d="M52.4622 77.4331C54.6773 76.1512 57.4106 76.1512 59.6257 77.4292L102.325 102.067C102.998 102.454 102.998 103.426 102.325 103.817L59.2701 128.718C57.3139 129.849 54.9054 129.849 52.9493 128.718L9.82482 103.841C9.15214 103.453 9.15214 102.481 9.82482 102.09L52.4622 77.4331Z" fill="url(#paint2_linear_474_822)"/>
</g>
<path d="M9.82404 102.845L52.9446 127.723C54.9008 128.854 57.3093 128.854 59.2654 127.723L102.32 102.822C102.487 102.725 102.61 102.593 102.695 102.446C102.95 102.903 102.827 103.527 102.32 103.817L59.2654 128.718C57.3093 129.849 54.9008 129.849 52.9446 128.718L9.82404 103.84C9.3176 103.546 9.19389 102.923 9.44904 102.47C9.53409 102.617 9.6578 102.748 9.82404 102.845Z" fill="url(#paint3_linear_474_822)"/>
<path opacity="0.5" d="M9.82288 102.09L52.4564 77.4331C54.6716 76.1512 57.4048 76.1512 59.6199 77.4292L102.319 102.067C102.655 102.261 102.822 102.601 102.822 102.942V117.379C102.822 117.72 102.655 118.061 102.319 118.254L59.2643 143.156C57.3081 144.286 54.8996 144.286 52.9435 143.156L9.82288 118.274C9.48655 118.08 9.32031 117.739 9.32031 117.399V102.961C9.32031 102.625 9.48655 102.284 9.82288 102.09Z" fill="url(#paint4_linear_474_822)"/>
<g opacity="0.5">
<path d="M99.9492 48.3228C100.985 48.59 102.002 48.8727 103.003 49.1631V56.5598C102.002 56.2694 100.985 55.9867 99.9492 55.7195V48.3228Z" fill="#EB7D2D"/>
<path opacity="0.5" d="M92.8672 48.6284C93.9767 48.8414 95.0669 49.066 96.1455 49.3061V54.8053C95.0708 54.5652 93.9767 54.3406 92.8672 54.1276V48.6284Z" fill="#EB7D2D"/>
<path d="M85.3477 42.6064C86.519 42.7575 87.6749 42.924 88.8193 43.106V53.4188C87.6749 53.2368 86.519 53.0703 85.3477 52.9193V42.6064Z" fill="#EB7D2D"/>
<path opacity="0.5" d="M77.4375 36.1084C78.663 36.1975 79.8769 36.2982 81.0792 36.4182V52.4354C79.8769 52.3192 78.663 52.2147 77.4375 52.1256V36.1084Z" fill="#EB7D2D"/>
<path opacity="0.5" d="M69.1914 39.5474C70.4633 39.5667 71.7275 39.6016 72.9839 39.6558V51.874C71.7313 51.8236 70.4672 51.7849 69.1914 51.7655V39.5474Z" fill="#EB7D2D"/>
<path d="M60.8672 26.7559C62.112 26.7056 63.3646 26.6707 64.6249 26.6514V51.7654C63.3646 51.7848 62.112 51.8196 60.8672 51.87V26.7559Z" fill="#EB7D2D"/>
<path d="M52.8125 31.9261C54.0071 31.8099 55.2171 31.7092 56.4349 31.6201V52.1141C55.2171 52.1993 54.0071 52.3039 52.8125 52.42V31.9261Z" fill="#EB7D2D"/>
<path d="M45.1016 25.234C46.242 25.0558 47.3979 24.8893 48.5616 24.7383V52.9001C47.3941 53.0511 46.242 53.2176 45.1016 53.3958V25.234Z" fill="#EB7D2D"/>
</g>
<path opacity="0.2" d="M56.0721 118.243C71.0796 118.243 83.2457 111.207 83.2457 102.528C83.2457 93.8489 71.0796 86.813 56.0721 86.813C41.0645 86.813 28.8984 93.8489 28.8984 102.528C28.8984 111.207 41.0645 118.243 56.0721 118.243Z" fill="#EB7D2D"/>
<path d="M56.0736 111.443C64.5883 111.443 71.4909 107.452 71.4909 102.528C71.4909 97.6046 64.5883 93.6133 56.0736 93.6133C47.5588 93.6133 40.6562 97.6046 40.6562 102.528C40.6562 107.452 47.5588 111.443 56.0736 111.443Z" fill="#EB7D2D"/>
<path d="M75.9831 77.937L74.0586 78.7173L80.7048 95.1663L82.6292 94.3861L75.9831 77.937Z" fill="#EB7D2D"/>
<path d="M39.4249 76.7326C42.9863 76.7326 45.8733 73.8405 45.8733 70.273C45.8733 66.7055 42.9863 63.8135 39.4249 63.8135C35.8636 63.8135 32.9766 66.7055 32.9766 70.273C32.9766 73.8405 35.8636 76.7326 39.4249 76.7326Z" fill="url(#paint5_radial_474_822)"/>
<path d="M72.7231 79.8268C72.7231 92.3625 65.2696 102.528 56.0764 102.528C46.8832 102.528 39.4297 92.3664 39.4297 79.8268C39.4297 67.2911 46.8832 63.5308 56.0764 63.5308C65.2696 63.5308 72.7231 67.2872 72.7231 79.8268Z" fill="url(#paint6_radial_474_822)"/>
<path d="M72.7231 79.8268C72.7231 92.3625 65.2696 102.528 56.0764 102.528C46.8832 102.528 39.4297 92.3664 39.4297 79.8268C39.4297 67.2911 46.8832 63.5308 56.0764 63.5308C65.2696 63.5308 72.7231 67.2872 72.7231 79.8268Z" fill="url(#paint7_linear_474_822)"/>
<path d="M56.0729 76.8449C62.3479 76.8449 67.4349 73.9026 67.4349 70.273C67.4349 66.6435 62.3479 63.7012 56.0729 63.7012C49.7979 63.7012 44.7109 66.6435 44.7109 70.273C44.7109 73.9026 49.7979 76.8449 56.0729 76.8449Z" fill="#EB7D2D"/>
<path d="M48.0397 67.3763C52.4778 64.8087 59.6685 64.8087 64.1065 67.3763C65.939 68.4374 67.0137 69.7696 67.3307 71.1482C67.783 69.1887 66.7083 67.1323 64.1065 65.6259C59.6685 63.0583 52.474 63.0583 48.0397 65.6259C45.4341 67.1323 44.3632 69.1887 44.8155 71.1482C45.1364 69.7657 46.2073 68.4374 48.0397 67.3763Z" fill="#453C9E"/>
<path d="M42.9608 54.6584L45.0175 51.1111C46.2275 49.8563 47.194 48.1872 47.685 46.5104L49.7648 42.9166L46.7726 41.1933C46.676 41.1274 46.5754 41.0693 46.4711 41.019C45.6206 40.6162 44.4878 40.7247 43.2469 41.4411C40.5987 42.9708 38.4531 46.6924 38.4531 49.7557C38.4531 51.2854 38.9905 52.3619 39.8565 52.8615L42.9608 54.6584Z" fill="url(#paint8_radial_474_822)"/>
<path d="M49.7115 50.7232C51.5829 47.4763 51.5831 43.9668 49.7119 42.8846C47.8407 41.8024 44.8068 43.5572 42.9354 46.8041C41.064 50.051 41.0638 53.5604 42.9349 54.6427C44.8061 55.7249 47.8401 53.9701 49.7115 50.7232Z" fill="#BCBEFF"/>
<path d="M56.7331 71.5973C66.1104 71.5973 73.7122 63.9823 73.7122 54.5887C73.7122 45.1951 66.1104 37.5801 56.7331 37.5801C47.3557 37.5801 39.7539 45.1951 39.7539 54.5887C39.7539 63.9823 47.3557 71.5973 56.7331 71.5973Z" fill="url(#paint9_radial_474_822)"/>
<path d="M56.7331 71.5973C66.1104 71.5973 73.7122 63.9823 73.7122 54.5887C73.7122 45.1951 66.1104 37.5801 56.7331 37.5801C47.3557 37.5801 39.7539 45.1951 39.7539 54.5887C39.7539 63.9823 47.3557 71.5973 56.7331 71.5973Z" fill="url(#paint10_linear_474_822)"/>
<path d="M66.2342 66.0905L68.2909 62.5432C69.5009 61.2885 70.4674 59.6194 70.9584 57.9425L73.0383 54.3487L70.046 52.6254C69.9494 52.5596 69.8489 52.5015 69.7445 52.4511C68.894 52.0484 67.7613 52.1568 66.5203 52.8732C63.8722 54.4029 61.7266 58.1245 61.7266 61.1878C61.7266 62.7175 62.2639 63.7941 63.1299 64.2936L66.2342 66.0905Z" fill="url(#paint11_radial_474_822)"/>
<path d="M66.2342 66.0905L68.2909 62.5432C69.5009 61.2885 70.4674 59.6194 70.9584 57.9425L73.0383 54.3487L70.046 52.6254C69.9494 52.5596 69.8489 52.5015 69.7445 52.4511C68.894 52.0484 67.7613 52.1568 66.5203 52.8732C63.8722 54.4029 61.7266 58.1245 61.7266 61.1878C61.7266 62.7175 62.2639 63.7941 63.1299 64.2936L66.2342 66.0905Z" fill="url(#paint12_linear_474_822)"/>
<path d="M72.9889 62.1573C74.8603 58.9104 74.8604 55.4009 72.9893 54.3187C71.1181 53.2364 68.0841 54.9912 66.2127 58.2382C64.3413 61.4851 64.3411 64.9945 66.2123 66.0767C68.0835 67.159 71.1174 65.4042 72.9889 62.1573Z" fill="#BCBEFF"/>
<path d="M65.029 63.0079C65.029 59.9485 67.1745 56.2231 69.8227 54.6934C70.7389 54.1628 71.5972 53.9653 72.324 54.0621C71.5508 53.8917 70.6114 54.0699 69.6023 54.6547C66.9542 56.1843 64.8086 59.9059 64.8086 62.9692C64.8086 64.9714 65.7248 66.1912 67.0972 66.3732C65.8485 66.0944 65.029 64.9016 65.029 63.0079Z" fill="white"/>
<path d="M73.0262 58.2175C73.0262 60.4055 71.4914 63.066 69.601 64.162C67.7106 65.2579 66.1758 64.3711 66.1758 62.1792C66.1758 59.9911 67.7106 57.3306 69.601 56.2347C71.4914 55.1387 73.0262 56.0294 73.0262 58.2175Z" fill="#EB7D2D"/>
<path d="M71.5707 55.8203C71.9264 56.2386 72.1313 56.8659 72.1313 57.6676C72.1313 59.8556 70.5965 62.5161 68.706 63.612C67.9715 64.0342 67.295 64.162 66.7383 64.0303C67.3491 64.7545 68.4045 64.8552 69.6029 64.162C71.4934 63.066 73.0281 60.4055 73.0281 58.2175C73.0281 56.8775 72.4521 56.0256 71.5707 55.8203Z" fill="#453C9E"/>
<path d="M49.4593 65.8375C51.6571 64.9211 52.1544 61.0872 50.57 57.2744C48.9855 53.4616 45.9194 51.1136 43.7217 52.0301C41.5239 52.9465 41.0266 56.7804 42.611 60.5932C44.1954 64.406 47.2615 66.754 49.4593 65.8375Z" fill="#EB7D2D"/>
<path d="M49.229 59.747C49.0705 60.963 48.1542 61.3425 47.1839 60.599C46.2135 59.8554 45.5525 58.2638 45.711 57.0516C45.8695 55.8356 46.7857 55.4561 47.7561 56.1997C48.7264 56.9432 49.3836 58.531 49.229 59.747Z" fill="#EB7D2D"/>
<path d="M47.0901 64.5029C44.4148 62.4543 42.5978 58.0821 43.0308 54.7361C43.2087 53.373 43.7306 52.3893 44.469 51.8433C43.0695 51.9749 42.0102 53.1638 41.7435 55.2241C41.3105 58.57 43.1275 62.9422 45.8027 64.9909C47.3877 66.203 48.9186 66.3308 49.9895 65.5369C49.1235 65.6182 48.1184 65.289 47.0901 64.5029Z" fill="#453C9E"/>
<path d="M46.0386 64.8825C43.3633 62.8339 41.5464 58.4617 41.9793 55.1158C42.1804 53.5667 42.8298 52.5133 43.7306 52.0254C42.7061 52.4475 41.9639 53.5473 41.7474 55.2242C41.3144 58.5701 43.1314 62.9423 45.8066 64.991C47.2409 66.0908 48.6326 66.296 49.6803 65.7306C48.6635 66.1528 47.3723 65.901 46.0386 64.8825Z" fill="#EB7D2D"/>
<path d="M81.3399 79.579C80.6479 83.0799 77.2575 85.3531 73.7627 84.6599C70.2679 83.9667 67.9986 80.5704 68.6906 77.0696C69.3826 73.5687 72.773 71.2955 76.2678 71.9887C79.7626 72.6819 82.0319 76.0782 81.3399 79.579Z" fill="url(#paint13_radial_474_822)"/>
<path d="M81.3399 79.579C80.6479 83.0799 77.2575 85.3531 73.7627 84.6599C70.2679 83.9667 67.9986 80.5704 68.6906 77.0696C69.3826 73.5687 72.773 71.2955 76.2678 71.9887C79.7626 72.6819 82.0319 76.0782 81.3399 79.579Z" fill="url(#paint14_linear_474_822)"/>
<path d="M85.2982 99.724C84.9309 102.795 82.2247 108.608 79.7776 108.314C77.3305 108.019 76.0624 101.734 76.4297 98.6629C76.797 95.5919 79.0779 93.3419 81.525 93.6362C83.976 93.9305 85.6654 96.653 85.2982 99.724Z" fill="url(#paint15_radial_474_822)"/>
<path d="M85.2982 99.724C84.9309 102.795 82.2247 108.608 79.7776 108.314C77.3305 108.019 76.0624 101.734 76.4297 98.6629C76.797 95.5919 79.0779 93.3419 81.525 93.6362C83.976 93.9305 85.6654 96.653 85.2982 99.724Z" fill="url(#paint16_linear_474_822)"/>
<path d="M22.3672 79.9777C21.9922 79.9777 21.6327 79.7763 21.4471 79.42C21.1804 78.9127 21.3775 78.2853 21.884 78.0181L35.1982 71.0396C35.7047 70.7724 36.3348 70.9699 36.5977 71.4772C36.8645 71.9845 36.6673 72.6119 36.1609 72.8791L22.8466 79.8576C22.6958 79.9389 22.5296 79.9777 22.3672 79.9777Z" fill="#EB7D2D"/>
<path d="M22.6015 83.8502C19.8953 85.3372 13.6016 86.5068 12.4147 84.342C11.2279 82.1772 15.6003 77.4913 18.3064 76.0042C21.0126 74.5171 24.1672 75.0709 25.3501 77.2357C26.537 79.4044 25.3076 82.3669 22.6015 83.8502Z" fill="url(#paint17_radial_474_822)"/>
<path d="M22.6015 83.8502C19.8953 85.3372 13.6016 86.5068 12.4147 84.342C11.2279 82.1772 15.6003 77.4913 18.3064 76.0042C21.0126 74.5171 24.1672 75.0709 25.3501 77.2357C26.537 79.4044 25.3076 82.3669 22.6015 83.8502Z" fill="url(#paint18_linear_474_822)"/>
<g opacity="0.5">
<path opacity="0.502" d="M21.7783 31.5536C31.416 28.6452 37.1531 39.5893 31.5204 50.1345C26.7382 59.088 15.0863 65.5553 12.04 56.1525C10.2462 50.6224 11.7307 37.0643 20.8504 31.9525C18.3917 33.2266 16.5902 35.0273 14.8196 37.9744C18.1829 42.1181 18.4574 42.4589 21.3607 45.8049C24.7975 37.6685 25.0798 37.0024 27.6235 31.4994C25.6365 30.8023 23.8891 30.8216 21.7783 31.5536ZM21.1017 31.8324C21.0283 31.8673 20.9548 31.8982 20.8852 31.937C20.9548 31.9021 21.0283 31.8673 21.1017 31.8324ZM21.5927 31.6233C21.6468 31.6039 21.7009 31.5807 21.7551 31.5613C21.6971 31.5807 21.6429 31.6039 21.5927 31.6233ZM21.3607 31.7201C21.2834 31.7511 21.21 31.7859 21.1326 31.8208C21.21 31.7821 21.2834 31.7511 21.3607 31.7201ZM21.3607 31.7201C21.4226 31.693 21.4844 31.6698 21.5463 31.6426C21.4844 31.6659 21.4226 31.693 21.3607 31.7201Z" fill="#EB7D2D"/>
<path d="M5.47266 41.9287C6.03708 41.3362 6.64017 40.7553 7.28191 40.1821V68.3439C6.64017 68.9171 6.03708 69.498 5.47266 70.0905V41.9287Z" fill="#EB7D2D"/>
<path d="M2.58594 55.5024C2.98413 54.8712 3.42484 54.2515 3.90809 53.6396V71.8991C3.42484 72.511 2.98413 73.1345 2.58594 73.7619V55.5024Z" fill="#EB7D2D"/>
<path opacity="0.502" d="M0 76.7281L0.0309274 76.7939L0.0657208 74.9428L0 74.846V76.7281ZM0 82.1769V54.0151C0 53.8331 0.00386593 53.6549 0.0115978 53.4729C0.0618549 52.1872 0.286079 50.9208 0.672672 49.6777V77.8395C0.282213 79.0826 0.057989 80.349 0.0115978 81.6347C0.00386593 81.8167 0 81.9949 0 82.1769Z" fill="#EB7D2D"/>
<path d="M0 76.7283L0.0309274 76.7941L0.0657208 74.9469L0 74.8462V76.7283Z" fill="#EB7D2D"/>
<path d="M20.8786 31.9371C20.867 31.941 20.8593 31.9487 20.8477 31.9526C20.8593 31.9448 20.867 31.941 20.8786 31.9371ZM21.7484 31.5615C21.7561 31.5576 21.7639 31.5537 21.7716 31.5537C21.7639 31.5576 21.7561 31.5615 21.7484 31.5615ZM21.1299 31.8171C21.1183 31.8209 21.1067 31.8287 21.0951 31.8325C21.1105 31.8287 21.1183 31.8209 21.1299 31.8171ZM21.5435 31.6428C21.5435 31.6428 21.5474 31.6428 21.5474 31.6389C21.5474 31.6389 21.5513 31.6389 21.5513 31.635C21.5513 31.635 21.5551 31.635 21.5551 31.6312C21.5551 31.6312 21.559 31.6312 21.559 31.6273C21.559 31.6273 21.5629 31.6273 21.5629 31.6234C21.5629 31.6234 21.5667 31.6234 21.5667 31.6195C21.5667 31.6195 21.5706 31.6195 21.5706 31.6157C21.5706 31.6157 21.5745 31.6157 21.5745 31.6118C21.5745 31.6312 21.559 31.635 21.5435 31.6428Z" fill="#EB7D2D"/>
<path d="M21.3615 31.7204C24.5006 30.4076 26.7699 31.1976 27.6243 31.4958C24.029 39.4308 23.654 40.2596 21.3615 45.8013C17.8203 41.6769 17.2752 41.0418 14.8203 37.9708C15.5162 36.8168 17.627 33.2966 21.3615 31.7204Z" fill="#EB7D2D"/>
<path opacity="0.502" d="M43.6657 100.998C40.774 101.858 38.9183 100.099 38.2379 99.5767C32.93 95.0728 28.2793 89.5814 22.952 85.0969C21.3786 83.7725 20.4121 84.3185 19.867 84.4657C9.93158 88.4119 9.93158 88.4119 8.33881 86.0031C5.42004 80.8254 5.31952 80.411 3.96645 77.1735C3.65717 76.4338 2.60564 75.3146 2.13786 75.3766C-0.0889164 76.0078 0.204894 76.4648 0 76.732V74.8499C2.62883 73.8353 2.89945 73.7152 3.96645 76.1627C8.87618 86.5956 9.73828 86.3632 10.8826 86.0922C21.3361 81.9058 21.2085 82.2079 23.8721 84.9846C28.4803 89.7905 37.7779 99.1507 40.6503 99.8981C41.5317 100.014 42.9312 99.8865 43.7623 99.6774C53.8524 96.2927 57.8575 94.1627 67.735 89.899L68.6203 91.3357C64.967 92.9312 53.9143 97.2879 43.7469 100.494L43.6657 100.998ZM75.2117 112.352V84.1907C72.1074 84.365 68.9373 84.4424 65.7208 84.4192C29.1839 84.1249 0 70.5668 0 54.0151V82.1769C0 98.7286 29.1839 112.291 65.7208 112.581C68.9373 112.604 72.1074 112.527 75.2117 112.352Z" fill="#EB7D2D"/>
<path d="M43.6657 100.998C41.0639 101.664 38.6052 102.295 23.3 85.8017C21.3631 83.8499 21.3631 83.8499 11.4238 87.8194C10.295 88.0943 8.5901 88.5087 3.89299 77.2819C2.44327 73.967 0.0231956 76.701 0 76.732V74.8499C0.823443 74.3813 0.877566 74.3504 2.1108 74.0018C2.33502 73.9399 2.58244 73.9476 2.7912 74.056C3.11981 74.2264 3.45614 74.6176 4.03603 75.8568C6.74218 81.6348 6.74218 81.6348 8.69448 84.7949C9.84266 86.5027 9.84266 86.5027 19.1712 82.7927C19.809 82.6223 21.135 82.2621 23.1337 83.8615C28.7509 88.3499 33.3243 93.9652 38.8719 98.535C40.9518 100.018 42.2082 100.913 67.7311 89.899L68.6164 91.3357C64.9592 92.9274 53.8369 97.7875 43.6657 100.998Z" fill="#EB7D2D"/>
</g>
</g>
<defs>
<linearGradient id="paint0_linear_474_822" x1="102.828" y1="110.223" x2="9.32152" y2="110.223" gradientUnits="userSpaceOnUse">
<stop stop-color="#5761D7"/>
<stop offset="0.0726" stop-color="#5472D8"/>
<stop offset="0.2791" stop-color="#4E9CDB"/>
<stop offset="0.4801" stop-color="#49BDDD"/>
<stop offset="0.6715" stop-color="#45D5DF"/>
<stop offset="0.8493" stop-color="#43E3E0"/>
<stop offset="1" stop-color="#42E8E0"/>
</linearGradient>
<linearGradient id="paint1_linear_474_822" x1="102.828" y1="103.017" x2="9.32152" y2="103.017" gradientUnits="userSpaceOnUse">
<stop stop-color="#5761D7"/>
<stop offset="0.0726" stop-color="#5472D8"/>
<stop offset="0.2791" stop-color="#4E9CDB"/>
<stop offset="0.4801" stop-color="#49BDDD"/>
<stop offset="0.6715" stop-color="#45D5DF"/>
<stop offset="0.8493" stop-color="#43E3E0"/>
<stop offset="1" stop-color="#42E8E0"/>
</linearGradient>
<linearGradient id="paint2_linear_474_822" x1="102.828" y1="103.017" x2="9.32152" y2="103.017" gradientUnits="userSpaceOnUse">
<stop stop-color="#5761D7"/>
<stop offset="0.0726" stop-color="#5472D8"/>
<stop offset="0.2791" stop-color="#4E9CDB"/>
<stop offset="0.4801" stop-color="#49BDDD"/>
<stop offset="0.6715" stop-color="#45D5DF"/>
<stop offset="0.8493" stop-color="#43E3E0"/>
<stop offset="1" stop-color="#42E8E0"/>
</linearGradient>
<linearGradient id="paint3_linear_474_822" x1="102.826" y1="116.004" x2="9.32132" y2="116.004" gradientUnits="userSpaceOnUse">
<stop stop-color="#5761D7"/>
<stop offset="0.0726" stop-color="#5472D8"/>
<stop offset="0.2791" stop-color="#4E9CDB"/>
<stop offset="0.4801" stop-color="#49BDDD"/>
<stop offset="0.6715" stop-color="#45D5DF"/>
<stop offset="0.8493" stop-color="#43E3E0"/>
<stop offset="1" stop-color="#42E8E0"/>
</linearGradient>
<linearGradient id="paint4_linear_474_822" x1="102.826" y1="110.235" x2="9.31958" y2="110.235" gradientUnits="userSpaceOnUse">
<stop stop-color="#5761D7"/>
<stop offset="0.0726" stop-color="#5472D8"/>
<stop offset="0.2791" stop-color="#4E9CDB"/>
<stop offset="0.4801" stop-color="#49BDDD"/>
<stop offset="0.6715" stop-color="#45D5DF"/>
<stop offset="0.8493" stop-color="#43E3E0"/>
<stop offset="1" stop-color="#42E8E0"/>
</linearGradient>
<radialGradient id="paint5_radial_474_822" cx="0" cy="0" r="1" gradientUnits="userSpaceOnUse" gradientTransform="translate(70.265 49.6368) rotate(11.2165) scale(37.2213 37.2809)">
<stop stop-color="#C0BFF6"/>
<stop offset="1" stop-color="#393091"/>
</radialGradient>
<radialGradient id="paint6_radial_474_822" cx="0" cy="0" r="1" gradientUnits="userSpaceOnUse" gradientTransform="translate(65.8963 76.4238) scale(28.6092 39.0122)">
<stop stop-color="#C0BFF6"/>
<stop offset="1" stop-color="#393091"/>
</radialGradient>
<linearGradient id="paint7_linear_474_822" x1="56.0741" y1="102.527" x2="56.0741" y2="63.5311" gradientUnits="userSpaceOnUse">
<stop stop-color="#42E8E0"/>
<stop offset="0.00467455" stop-color="#42E6DF"/>
<stop offset="0.1358" stop-color="#40B6CB"/>
<stop offset="0.2707" stop-color="#3E8DB9"/>
<stop offset="0.4074" stop-color="#3C6BAA"/>
<stop offset="0.5467" stop-color="#3B519F"/>
<stop offset="0.6893" stop-color="#3A3F97"/>
<stop offset="0.8375" stop-color="#393493"/>
<stop offset="1" stop-color="#393091"/>
</linearGradient>
<radialGradient id="paint8_radial_474_822" cx="0" cy="0" r="1" gradientUnits="userSpaceOnUse" gradientTransform="translate(39.314 28.1875) scale(20.1468 20.1817)">
<stop stop-color="#C0BFF6"/>
<stop offset="1" stop-color="#393091"/>
</radialGradient>
<radialGradient id="paint9_radial_474_822" cx="0" cy="0" r="1" gradientUnits="userSpaceOnUse" gradientTransform="translate(67.3297 52.0683) scale(28.6969 28.7466)">
<stop stop-color="#C0BFF6"/>
<stop offset="1" stop-color="#393091"/>
</radialGradient>
<linearGradient id="paint10_linear_474_822" x1="54.3706" y1="71.4325" x2="59.1132" y2="37.7457" gradientUnits="userSpaceOnUse">
<stop stop-color="#42E8E0"/>
<stop offset="0.00467455" stop-color="#42E6DF"/>
<stop offset="0.1358" stop-color="#40B6CB"/>
<stop offset="0.2707" stop-color="#3E8DB9"/>
<stop offset="0.4074" stop-color="#3C6BAA"/>
<stop offset="0.5467" stop-color="#3B519F"/>
<stop offset="0.6893" stop-color="#3A3F97"/>
<stop offset="0.8375" stop-color="#393493"/>
<stop offset="1" stop-color="#393091"/>
</linearGradient>
<radialGradient id="paint11_radial_474_822" cx="0" cy="0" r="1" gradientUnits="userSpaceOnUse" gradientTransform="translate(67.0987 51.7626) scale(13.6283 13.652)">
<stop stop-color="#C0BFF6"/>
<stop offset="1" stop-color="#393091"/>
</radialGradient>
<linearGradient id="paint12_linear_474_822" x1="64.3548" y1="65.4052" x2="69.1584" y2="52.2302" gradientUnits="userSpaceOnUse">
<stop stop-color="#42E8E0"/>
<stop offset="0.00467455" stop-color="#42E6DF"/>
<stop offset="0.1358" stop-color="#40B6CB"/>
<stop offset="0.2707" stop-color="#3E8DB9"/>
<stop offset="0.4074" stop-color="#3C6BAA"/>
<stop offset="0.5467" stop-color="#3B519F"/>
<stop offset="0.6893" stop-color="#3A3F97"/>
<stop offset="0.8375" stop-color="#393493"/>
<stop offset="1" stop-color="#393091"/>
</linearGradient>
<radialGradient id="paint13_radial_474_822" cx="0" cy="0" r="1" gradientUnits="userSpaceOnUse" gradientTransform="translate(78.8357 74.1087) rotate(11.2165) scale(13.4526 13.4742)">
<stop stop-color="#C0BFF6"/>
<stop offset="1" stop-color="#393091"/>
</radialGradient>
<linearGradient id="paint14_linear_474_822" x1="69.7991" y1="82.1206" x2="80.2439" y2="74.5446" gradientUnits="userSpaceOnUse">
<stop stop-color="#42E8E0"/>
<stop offset="0.00467455" stop-color="#42E6DF"/>
<stop offset="0.1358" stop-color="#40B6CB"/>
<stop offset="0.2707" stop-color="#3E8DB9"/>
<stop offset="0.4074" stop-color="#3C6BAA"/>
<stop offset="0.5467" stop-color="#3B519F"/>
<stop offset="0.6893" stop-color="#3A3F97"/>
<stop offset="0.8375" stop-color="#393493"/>
<stop offset="1" stop-color="#393091"/>
</linearGradient>
<radialGradient id="paint15_radial_474_822" cx="0" cy="0" r="1" gradientUnits="userSpaceOnUse" gradientTransform="translate(86.9718 94.62) rotate(6.81453) scale(11.4359 18.8699)">
<stop stop-color="#C0BFF6"/>
<stop offset="1" stop-color="#393091"/>
</radialGradient>
<linearGradient id="paint16_linear_474_822" x1="76.2176" y1="100.444" x2="85.0864" y2="101.501" gradientUnits="userSpaceOnUse">
<stop stop-color="#42E8E0"/>
<stop offset="0.00467455" stop-color="#42E6DF"/>
<stop offset="0.1358" stop-color="#40B6CB"/>
<stop offset="0.2707" stop-color="#3E8DB9"/>
<stop offset="0.4074" stop-color="#3C6BAA"/>
<stop offset="0.5467" stop-color="#3B519F"/>
<stop offset="0.6893" stop-color="#3A3F97"/>
<stop offset="0.8375" stop-color="#393493"/>
<stop offset="1" stop-color="#393091"/>
</linearGradient>
<radialGradient id="paint17_radial_474_822" cx="0" cy="0" r="1" gradientUnits="userSpaceOnUse" gradientTransform="translate(30.5633 76.1813) rotate(61.3123) scale(11.4509 18.8455)">
<stop stop-color="#C0BFF6"/>
<stop offset="1" stop-color="#393091"/>
</radialGradient>
<linearGradient id="paint18_linear_474_822" x1="25.2566" y1="80.6086" x2="15.3871" y2="78.0791" gradientUnits="userSpaceOnUse">
<stop stop-color="#42E8E0"/>
<stop offset="0.00467455" stop-color="#42E6DF"/>
<stop offset="0.1358" stop-color="#40B6CB"/>
<stop offset="0.2707" stop-color="#3E8DB9"/>
<stop offset="0.4074" stop-color="#3C6BAA"/>
<stop offset="0.5467" stop-color="#3B519F"/>
<stop offset="0.6893" stop-color="#3A3F97"/>
<stop offset="0.8375" stop-color="#393493"/>
<stop offset="1" stop-color="#393091"/>
</linearGradient>
<clipPath id="clip0_474_822">
<rect width="103" height="144" fill="white"/>
</clipPath>
</defs>
</svg>
