<svg width="19" height="11" viewBox="0 0 19 11" fill="none" xmlns="http://www.w3.org/2000/svg">
<path id="Vector" d="M17.5156 0.00244429C16.6957 0.00244429 16.0312 0.686813 16.0312 1.53005C16.0312 1.70359 16.0657 1.86674 16.1167 2.02194L12.4984 5.22809C12.2449 5.01972 11.9278 4.89018 11.5781 4.89018C11.1744 4.89018 10.8098 5.05699 10.5426 5.32585L7.70806 3.86546C7.65284 3.07355 7.01813 2.44601 6.23438 2.44601C5.415 2.44601 4.75 3.13037 4.75 3.97361C4.75 4.20459 4.80344 4.4209 4.8925 4.61704L2.00272 8.04622C1.84062 7.98389 1.66784 7.94478 1.48438 7.94478C0.664406 7.94478 0 8.62854 0 9.47239C0 10.3162 0.664406 11 1.48438 11C2.30434 11 2.96875 10.3162 2.96875 9.47239C2.96875 9.26953 2.92838 9.07583 2.85831 8.89862L5.795 5.42484C5.93513 5.46945 6.08 5.50061 6.23438 5.50061C6.66603 5.50061 7.05197 5.30752 7.32331 5.00383L10.0955 6.43429C10.1056 7.26958 10.7647 7.94417 11.5781 7.94417C12.3981 7.94417 13.0625 7.26042 13.0625 6.41656C13.0625 6.38968 13.056 6.36402 13.0548 6.33713L16.9159 2.92323C17.0994 3.00694 17.3013 3.05522 17.5156 3.05522C18.3356 3.05522 19 2.37146 19 1.52761C19 0.683758 18.3356 0 17.5156 0V0.00244429Z" fill="white" fill-opacity="0.6"/>
</svg>
