<svg width="78" height="80" viewBox="0 0 78 80" fill="none" xmlns="http://www.w3.org/2000/svg">
<g id="Group">
<path id="Vector" fill-rule="evenodd" clip-rule="evenodd" d="M0 0V40L12.2091 30.1262L19.291 19.9995L0 0Z" fill="#EB7D2D"/>
<path id="Vector_2" fill-rule="evenodd" clip-rule="evenodd" d="M19.291 19.999L21.2439 37.3417L19.291 60L0 39.9995L19.291 19.999Z" fill="#EB7D2D"/>
<path id="Vector_3" fill-rule="evenodd" clip-rule="evenodd" d="M19.293 19.999V60L38.583 39.9995L19.293 19.999Z" fill="#EB7D2D"/>
<path id="Vector_4" fill-rule="evenodd" clip-rule="evenodd" d="M77.1621 0V40L66.2343 31.8359L57.8711 19.9995L77.1621 0Z" fill="#EB7D2D"/>
<path id="Vector_5" fill-rule="evenodd" clip-rule="evenodd" d="M57.8736 19.999L56.6523 36.0755L57.8736 60L77.1646 39.9995L57.8736 19.999Z" fill="#EB7D2D"/>
<path id="Vector_6" fill-rule="evenodd" clip-rule="evenodd" d="M57.8691 19.999V38.3541V60L38.5781 39.9995L57.8691 19.999Z" fill="#EB7D2D"/>
<path id="Vector_7" fill-rule="evenodd" clip-rule="evenodd" d="M57.874 60.001H19.293L38.583 80.0005L57.874 60.001Z" fill="#EB7D2D"/>
</g>
</svg>
