<svg width="40" height="40" viewBox="0 0 40 40" fill="none" xmlns="http://www.w3.org/2000/svg">
<circle cx="20" cy="20" r="20" fill="#EB7D2D"/>
<path d="M29.5035 14.8458C28.8007 15.1582 28.0444 15.3689 27.2508 15.4632C28.0611 14.9782 28.6823 14.2098 28.9753 13.2932C28.2175 13.743 27.3785 14.0693 26.4848 14.2455C25.7696 13.4834 24.7502 13.0068 23.6221 13.0068C21.4564 13.0068 19.7004 14.7628 19.7004 16.9289C19.7004 17.2359 19.735 17.535 19.8021 17.8226C16.5424 17.6588 13.6522 16.0977 11.7177 13.7247C11.3801 14.3037 11.1869 14.9774 11.1869 15.6968C11.1869 17.0574 11.8792 18.258 12.9316 18.9612C12.289 18.9406 11.684 18.764 11.1551 18.4703C11.1547 18.4866 11.1547 18.5032 11.1547 18.5199C11.1547 20.4198 12.5067 22.0047 14.301 22.3656C13.972 22.4548 13.6254 22.5029 13.2676 22.5029C13.0146 22.5029 12.769 22.4785 12.5296 22.4323C13.029 23.9903 14.4772 25.1246 16.1932 25.1561C14.8509 26.2081 13.1601 26.8352 11.3223 26.8352C11.0061 26.8352 10.6937 26.8165 10.3867 26.7801C12.1229 27.8934 14.1842 28.5422 16.3989 28.5422C23.6132 28.5422 27.5578 22.5662 27.5578 17.3833C27.5578 17.2134 27.5543 17.0438 27.5469 16.8754C28.3129 16.3235 28.978 15.6324 29.5035 14.8458Z" fill="white"/>
</svg>
